# xmcd CD database file
#
# Track frame offsets:
#	150
#	13818
#	27433
#	37470
#	47721
#	58713
#	69291
#	80595
#	92663
#	104019
#	115194
#	127119
#	140057
#	153105
#	166038
#	177815
#	189160
#	201171
#	212779
#	225732
#
# Disc length: 3153 seconds
#
# Revision: 0
# Processed by: cddbd v1.5.2PL0 Copyright (c) Steve Scherf et al.
# Submitted via: CDex 1.51
#
DISCID=1b0c4f14
DTITLE=Robert Johnson - Dejavu Retro
DYEAR=2001
DGENRE=Blues
TTITLE0=Sweet Home Chicago
TTITLE1=Terraplane Blues
TTITLE2=Little Queen Of Spades - 1
TTITLE3=Little Queen Of Spades - 2
TTITLE4=Love In Vain - 1
TTITLE5=Love In Vain - 2
TTITLE6=Walking Blues
TTITLE7=Cross Road Blues - 1
TTITLE8=Cross Road Blues - 2
TTITLE9=Stones In My Passway
TTITLE10=When You've Got A Good Friend - 1
TTITLE11=When You've Got A Good Friend - 2
TTITLE12=32-30 Blues - 1
TTITLE13=Preaching Blues
TTITLE14=Me And The Devil Blues - 1
TTITLE15=Me And The Devil Blues - 2
TTITLE16=Phonograph Blues - 1
TTITLE17=Phonograph Blues - 2
TTITLE18=Rambling On My Mind - 1
TTITLE19=Rambling On My Mind - 2
EXTD=YEAR: 2001
EXTT0=
EXTT1=
EXTT2=
EXTT3=
EXTT4=
EXTT5=
EXTT6=
EXTT7=
EXTT8=
EXTT9=
EXTT10=
EXTT11=
EXTT12=
EXTT13=
EXTT14=
EXTT15=
EXTT16=
EXTT17=
EXTT18=
EXTT19=
PLAYORDER=
